{"title":"House of Boys.avi","uid":6285317,"size":1019623424,"categoryP":"video","categoryS":"movies","magnet":"?xt=urn:btih:71e6657fd45f46cfdcaada1a67da7f3eb954922a&amp;dn=House+of+Boys.avi&amp;tr=udp%3A%2F%2Ftracker.openbittorrent.com%3A80&amp;tr=udp%3A%2F%2Fopen.demonii.com%3A1337&amp;tr=udp%3A%2F%2Ftracker.coppersurfer.tk%3A6969&amp;tr=udp%3A%2F%2Fexodus.desync.com%3A6969","seeders":0,"leechers":0,"uploader":"skrzatoslaw","files":1,"time":1301593094,"description":"A glamorous, colourful coming-of-age story that follows the dramatic journey of Frank, a high school kid in 1984 through an exciting world of sex and music, when his deep new passion is suddenly turned into a struggle for courage, facing a new disease - the &quot;gay cancer&quot; and becomes deep, true love in the expectancy of his friend's horrible death and beyond... Written by Jean-Claude Schlim &amp; Christian Thiry.\n\nVideo\nID                               : 0\nFormat                           : MPEG-4 Visual\nFormat profile                   : Advanced Simple@L5\nFormat settings, BVOP            : 2\nFormat settings, QPel            : No\nFormat settings, GMC             : No warppoints\nFormat settings, Matrix          : Default (H.263)\nMuxing mode                      : Packed bitstream\nCodec ID                         : XVID\nCodec ID/Hint                    : XviD\nDuration                         : 1h 53mn\nBit rate                         : 1 030 Kbps\nWidth                            : 640 pixels\nHeight                           : 352 pixels\nDisplay aspect ratio             : 16:9\nFrame rate                       : 25.000 fps\nColor space                      : YUV\nChroma subsampling               : 4:2:0\nBit depth                        : 8 bits\nScan type                        : Progressive\nCompression mode                 : Lossy\nBits/(Pixel*Frame)               : 0.183\nStream size                      : 833 MiB (86%)\nWriting library                  : XviD 58\n\nAudio\nID                               : 1\nFormat                           : MPEG Audio\nFormat version                   : Version 1\nFormat profile                   : Layer 3\nMode                             : Joint stereo\nMode extension                   : MS Stereo\nCodec ID                         : 55\nCodec ID/Hint                    : MP3\nDuration                         : 1h 52mn\nBit rate mode                    : Variable\nBit rate                         : 160 Kbps\nChannel(s)                       : 2 channels\nSampling rate                    : 48.0 KHz\nCompression mode                 : Lossy\nDelay relative to video          : 1s 968ms\nStream size                      : 129 MiB (13%)\nAlignment                        : Split accross interleaves\nInterleave, duration             : 24 ms (0.60 video frame)\nInterleave, preload duration     : 1213 ms\nWriting library                  : LAME3.90.\nEncoding settings                : -m j -V 4 -q 2 -lowpass 18 --abr 160","torrent":{"xt":"urn:btih:71e6657fd45f46cfdcaada1a67da7f3eb954922a","amp;dn":"House+of+Boys.avi","amp;tr":["udp%3A%2F%2Ftracker.openbittorrent.com%3A80","udp%3A%2F%2Fopen.demonii.com%3A1337","udp%3A%2F%2Ftracker.coppersurfer.tk%3A6969","udp%3A%2F%2Fexodus.desync.com%3A6969"],"infoHash":"71e6657fd45f46cfdcaada1a67da7f3eb954922a","infoHashBuffer":{"type":"Buffer","data":[113,230,101,127,212,95,70,207,220,170,218,26,103,218,127,62,185,84,146,42]},"announce":[],"urlList":[]}}